<svg width="356" height="94" viewBox="0 0 356 94" fill="none" xmlns="http://www.w3.org/2000/svg">
<rect x="208.795" y="31.4482" width="61.9044" height="61.6719" transform="rotate(-0.174865 208.795 31.4482)" fill="#A0C4FF"/>
<path d="M270.699 31.2593L340.686 31.0457C348.97 31.0204 355.707 37.7156 355.732 45.9998L355.829 77.6716C355.854 85.9559 349.159 92.6921 340.874 92.7173L270.887 92.9309L270.699 31.2593Z" fill="#B2A5FF"/>
<rect x="146.891" y="31.6372" width="61.9044" height="61.6719" transform="rotate(-0.174865 146.891 31.6372)" fill="#CAFFBF"/>
<rect x="84.9871" y="31.8262" width="61.9044" height="61.6719" transform="rotate(-0.174865 84.9871 31.8262)" fill="#FDFFB6"/>
<path d="M0.0457794 47.0856C0.0204961 38.8014 6.7157 32.0652 14.9999 32.0399L84.987 31.8263L85.1752 93.498L15.1882 93.7116C6.90392 93.7369 0.167724 87.0417 0.142441 78.7574L0.0457794 47.0856Z" fill="#FFADAD"/>
<path d="M99.1059 1.63499C106.579 1.63499 112.121 3.155 115.731 6.195C119.404 9.17166 121.241 13.4467 121.241 19.02V21.3C121.241 27.2533 119.468 31.845 115.921 35.075C112.374 38.305 107.023 39.92 99.8659 39.92C97.0159 39.92 93.9759 39.6667 90.7459 39.16V65H82.6709V2.10999C88.0542 1.79333 93.5326 1.63499 99.1059 1.63499ZM98.9159 8.475C96.1292 8.475 93.4059 8.53833 90.7459 8.66499V32.225C94.5459 32.7317 97.4592 32.985 99.4859 32.985C108.606 32.985 113.166 28.9633 113.166 20.92V19.305C113.166 15.695 112.026 13.0033 109.746 11.23C107.466 9.39333 103.856 8.475 98.9159 8.475ZM138.791 0.114997V65H130.716V0.114997H138.791ZM166.209 17.5C171.656 17.5 175.614 18.735 178.084 21.205C180.618 23.6117 181.884 27.475 181.884 32.795V65H174.189V57.59C170.516 63.29 166.368 66.14 161.744 66.14C158.071 66.14 155.126 64.8733 152.909 62.34C150.756 59.8067 149.679 56.355 149.679 51.985V49.325C149.679 45.525 150.978 42.39 153.574 39.92C156.171 37.3867 159.654 36.12 164.024 36.12C166.431 36.12 169.693 36.5317 173.809 37.355V32.13C173.809 29.4067 173.176 27.4433 171.909 26.24C170.706 25.0367 168.806 24.435 166.209 24.435C163.169 24.435 158.894 24.91 153.384 25.86V18.925C159.338 17.975 163.613 17.5 166.209 17.5ZM166.019 42.39C163.359 42.39 161.333 43.0867 159.939 44.48C158.546 45.8733 157.849 47.8367 157.849 50.37V51.415C157.849 53.7583 158.388 55.595 159.464 56.925C160.541 58.255 161.903 58.92 163.549 58.92C165.259 58.92 167.001 58.1917 168.774 56.735C170.611 55.215 172.289 53.0933 173.809 50.37V43.055C171.403 42.6117 168.806 42.39 166.019 42.39ZM208.03 17.5C210.69 17.5 213.888 17.88 217.625 18.64L217.435 25.48C214.142 24.72 211.133 24.34 208.41 24.34C202.71 24.34 199.86 26.1767 199.86 29.85V30.705C199.86 31.845 200.145 32.7633 200.715 33.46C201.348 34.1567 202.457 34.885 204.04 35.645L212.97 39.825C218.353 42.3583 221.045 46.0633 221.045 50.94V53.03C220.982 57.4 219.652 60.6933 217.055 62.91C214.522 65.0633 210.5 66.14 204.99 66.14C202.14 66.14 198.055 65.475 192.735 64.145L193.115 56.925C197.865 58.3183 201.76 59.015 204.8 59.015C207.903 59.015 210.057 58.6033 211.26 57.78C212.463 56.8933 213.065 55.4683 213.065 53.505V52.555C213.065 51.035 212.748 49.8317 212.115 48.945C211.545 48.0583 210.563 47.2983 209.17 46.665L199.955 42.58C197.168 41.3133 195.11 39.7933 193.78 38.02C192.513 36.2467 191.88 34.1883 191.88 31.845V30.515C192.007 26.2083 193.337 22.9783 195.87 20.825C198.467 18.6083 202.52 17.5 208.03 17.5ZM240.504 18.64H252.854V25.29H240.504V52.46C240.504 54.8667 240.979 56.6083 241.929 57.685C242.943 58.6983 244.494 59.205 246.584 59.205C249.244 59.205 251.841 58.8883 254.374 58.255L254.564 65C251.778 65.76 249.244 66.14 246.964 66.14C241.898 66.14 238.193 65.0317 235.849 62.815C233.569 60.535 232.429 56.8617 232.429 51.795V25.29H225.779V18.64H232.429L233.949 6.29H240.504V18.64Z" fill="#424141"/>
</svg>
